<?xml version="1.0" encoding="utf-8"?>
<!-- Generator: Adobe Illustrator 27.5.0, SVG Export Plug-In . SVG Version: 6.00 Build 0)  -->
<svg version="1.1" xmlns="http://www.w3.org/2000/svg" xmlns:xlink="http://www.w3.org/1999/xlink" x="0px" y="0px"
	 viewBox="0 0 3710 3710" style="enable-background:new 0 0 3710 3710;" xml:space="preserve">
<g id="Background">
	<g>
		<g>
			<rect style="fill:#FFFFFF;" width="3710" height="3710"/>
		</g>
	</g>
</g>
<g id="Illustration">
	<g>
		<linearGradient id="SVGID_1_" gradientUnits="userSpaceOnUse" x1="3452.3376" y1="3282.866" x2="1411.9784" y2="1497.5531">
			<stop  offset="0" style="stop-color:#DAE3FE"/>
			<stop  offset="1" style="stop-color:#E9EFFD"/>
		</linearGradient>
		<path style="fill:url(#SVGID_1_);" d="M3105.583,2355.673c-263.697,620.899-966.123,968.731-1575.269,874.905
			c-99.12-15.268-370.861-60.747-611.451-275.302c-463.15-413.036-562.198-1230.901-188.589-1807.269
			c271.922-419.495,759.37-657.293,1222.541-645.398c99.767,2.562,482.116,18.353,818.135,295.426
			c49.354,40.697,158.211,137.403,256.316,290.822C3257.636,1449.111,3277.437,1951.026,3105.583,2355.673z"/>
		<g>
			<path style="fill:#BDD0FB;" d="M3056.764,986.674c4.43-13.674-11.514-24.91-23.036-16.316
				c-117.001,87.259-404.801,355.676-400.556,882.407c5.325,660.864-157.495,883.278-343.004,1009.148
				c0,0,239.871-41.842,413.343-266.59C3129.424,2043.514,2977.993,1229.798,3056.764,986.674z"/>
			<path style="fill:#FFFFFF;" d="M2953.169,1181.122c-21.474,71.062-41.535,142.51-58.956,214.589
				c-17.795,71.975-33.402,144.457-46.726,217.32c-13.043,72.909-24.717,146.051-33.266,219.58
				c-8.88,73.488-14.593,147.274-20.07,221.377c-5.887,74.03-11.398,148.64-24.563,222.915
				c-13.07,74.13-35.199,147.891-70.149,215.422c-8.731,16.828-17.802,33.563-27.769,49.596
				c-9.674,16.225-20.069,32.026-30.743,47.634c-21.508,31.117-45.118,60.86-70.827,88.715
				c-51.568,55.589-111.562,103.281-176.091,142.081c-6.792,4.083-15.607,1.888-19.692-4.904c-4.01-6.668-1.965-15.29,4.541-19.466
				l0.046-0.03c15.428-9.881,30.724-19.927,45.519-30.62c7.485-5.229,14.722-10.78,22.06-16.191
				c7.124-5.683,14.472-11.091,21.413-16.988c28.155-23.112,54.654-48.174,79.167-75.071
				c49.239-53.494,90.737-114.623,124.239-179.077c16.392-32.427,30.366-66.004,41.708-100.541
				c11.317-34.549,19.996-70.021,26.658-106.015c13.335-72.028,19.4-145.832,25.819-219.814
				c6.517-73.991,13.574-148.299,23.677-222.202c4.951-36.96,10.567-73.827,16.839-110.575c3.03-18.391,6.416-36.72,9.769-55.052
				c3.528-18.3,7.157-36.578,10.934-54.823c15.244-72.955,32.708-145.409,52.435-217.21
				c20.071-71.706,42.039-142.856,66.711-213.039c0.706-2.007,2.903-3.061,4.908-2.355
				C2952.709,1177.062,2953.757,1179.165,2953.169,1181.122z"/>
		</g>
		<g>
			<g>
				<path style="fill:#91B3FA;" d="M2338.628,2223.663c8.028,25.238,39.222,34.075,59.518,17.062
					c111.99-93.877,404.623-387.933,396.948-892.344c-6.481-425.953,30.482-657.537,54.547-761.505
					c5.088-21.985-20.847-37.688-37.997-23.022C2622.422,725.659,2047.73,1309.151,2338.628,2223.663z"/>
				<path style="fill:#FFFFFF;" d="M2374.451,2225.29c0.532,0.384,1.108,0.722,1.727,1.007c5.184,2.394,11.328,0.131,13.722-5.053
					c2.713-5.878,271.53-594.542,289.272-1187.207c0.169-5.703-4.318-10.47-10.027-10.646c-5.709-0.169-10.473,4.318-10.647,10.028
					c-17.612,588.351-284.679,1173.319-287.373,1179.158C2369.015,2217.142,2370.519,2222.451,2374.451,2225.29z"/>
			</g>
		</g>
		<g>
			<g>
				<path style="fill:#91B3FA;" d="M578.094,550.65c-60.615,199.737-365.893,1376.5,686.907,1861.318
					c0,0,400.404-722.97-657.055-1868.221C598.696,533.729,582.054,537.601,578.094,550.65z"/>
				<path style="opacity:0.45;fill:#FFFFFF;" d="M655.596,747.351c7.445,66.143,16.268,132.217,25.654,198.158
					c9.419,65.949,19.598,131.789,30.545,197.497c21.89,131.413,46.715,262.338,75.546,392.354
					c28.924,129.972,61.639,259.153,101.303,386.126c19.627,63.544,41.55,126.349,65.811,188.153
					c24.344,61.753,51.142,122.571,82.565,180.821l0.018,0.035c2.354,4.362,0.725,9.805-3.637,12.158
					c-4.362,2.353-9.805,0.724-12.159-3.638l-0.028-0.05c-31.509-59.325-58.146-120.894-82.276-183.272
					c-24.041-62.428-45.67-125.721-64.972-189.669c-39.012-127.787-70.966-257.511-99.107-387.936
					c-28.046-130.464-52.056-261.733-73.121-393.442c-10.534-65.855-20.297-131.83-29.299-197.907
					c-8.972-66.09-17.368-132.221-24.406-198.597c-0.221-2.088,1.292-3.959,3.379-4.18c2.079-0.221,3.944,1.279,4.179,3.354
					L655.596,747.351z"/>
			</g>
		</g>
		<g>
			
				<linearGradient id="SVGID_00000123413858149220198970000015455631972382585236_" gradientUnits="userSpaceOnUse" x1="3450.5313" y1="-372.6398" x2="1909.0364" y2="1676.0565">
				<stop  offset="0" style="stop-color:#4F52FF"/>
				<stop  offset="1" style="stop-color:#4042E2"/>
			</linearGradient>
			<path style="fill:url(#SVGID_00000123413858149220198970000015455631972382585236_);" d="M953.62,754.789l1436.348,17.315
				c79.242,0.955,143.835,63.842,146.91,143.031l80.919,2083.714c2.407,61.968-46.974,113.618-108.987,113.997l-1646.596,10.075
				c-58.27,0.356-105.5-47.155-104.798-105.421l25.265-2095.845C783.807,828.373,860.339,753.665,953.62,754.789z"/>
			<g>
				<path style="fill:#91B3FA;" d="M958.241,737.963c195.826,28.963,869.33,119.361,1427.511,83.275
					c25.455-1.646,47.293,17.889,48.341,43.376l85.955,2093.058c1.179,28.699-21.018,52.961-49.71,54.312
					c-234.711,11.053-1201.281,53.065-1545.376,12.825c-20.942-2.449-36.646-20.295-36.516-41.38l13.56-2197.206
					C902.19,756.378,928.715,733.596,958.241,737.963z"/>
				<path style="opacity:0.63;fill:#FFFFFF;" d="M978.596,792.476c188.452,27.873,836.594,114.867,1373.757,80.139
					c24.497-1.584,45.512,17.216,46.52,41.742l82.718,2014.244c1.135,27.618-20.227,50.967-47.838,52.267
					c-225.872,10.636-1156.046,51.066-1487.184,12.342c-20.154-2.358-35.267-19.531-35.141-39.822l13.05-2114.468
					C924.655,810.197,950.181,788.273,978.596,792.476z"/>
				<path style="opacity:0.78;fill:#FFFFFF;" d="M1097.346,996.223l14.846,431.799c0.494,14.361,11.951,25.914,26.309,26.492
					c79.898,3.218,328.873,12.294,469.584,6.659c15.917-0.638,28.656-13.354,29.375-29.268
					c3.657-80.901,12.365-316.391-4.891-415.087c-2.787-15.942-16.319-27.762-32.486-28.522l-472.21-22.216
					C1110.845,965.279,1096.761,979.186,1097.346,996.223z"/>
				<path style="fill:#91B3FA;" d="M1460.092,1154.91c-0.617,51.236-42.654,92.27-93.89,91.652
					c-51.236-0.617-92.271-42.653-91.653-93.889c0.618-51.237,42.653-92.271,93.89-91.654
					C1419.675,1061.637,1460.709,1103.673,1460.092,1154.91z"/>
				<path style="fill:#91B3FA;" d="M1223.124,1424.467l295.558,3.563c18.121,0.218,29.219-19.66,19.645-35.046
					c-24.632-39.585-76.461-97.929-167.46-96.422c-87.703,1.453-140.297,52.955-166.871,90.026
					C1192.715,1402.325,1203.762,1424.233,1223.124,1424.467z"/>
				<g style="opacity:0.6;">
					<path style="fill:#FFFFFF;" d="M2282.366,1048.08c7.292,0.088,13.156-5.806,13.031-13.097l-0.042-2.451
						c-0.125-7.291-6.191-13.435-13.48-13.653l-525.064-15.69c-7.289-0.218-11.339,5.255-9,12.162l4.686,13.835
						c2.339,6.907,10.219,12.63,17.511,12.718L2282.366,1048.08z"/>
				</g>
				<g style="opacity:0.6;">
					<path style="fill:#FFFFFF;" d="M1755.841,1083.641c-7.289-0.218-11.339,5.255-9,12.162l4.686,13.834
						c2.339,6.907,10.219,12.63,17.511,12.718l512.359,6.177c7.292,0.088,13.156-5.806,13.03-13.097l-0.042-2.451
						c-0.125-7.291-6.191-13.435-13.48-13.653L1755.841,1083.641z"/>
				</g>
				<g style="opacity:0.6;">
					<path style="fill:#FFFFFF;" d="M1754.856,1165.263c-7.289-0.218-11.339,5.255-8.999,12.162l4.686,13.834
						c2.339,6.907,10.22,12.63,17.511,12.718l512.358,6.177c7.292,0.088,13.156-5.806,13.031-13.097l-0.042-2.451
						c-0.125-7.291-6.191-13.435-13.48-13.653L1754.856,1165.263z"/>
				</g>
				<g style="opacity:0.6;">
					<path style="fill:#FFFFFF;" d="M2325.985,1604.383c7.292,0.088,12.936-5.798,12.544-13.08l-0.135-2.498
						c-0.393-7.282-6.679-13.359-13.97-13.504l-1220.645-24.339c-7.291-0.145-9.596,4.448-5.123,10.207l14.149,18.216
						c4.473,5.759,14.099,10.543,21.391,10.631L2325.985,1604.383z"/>
				</g>
				<g style="opacity:0.6;">
					<path style="fill:#FFFFFF;" d="M1102.809,1631.415c-7.291-0.145-9.596,4.448-5.123,10.207l14.149,18.216
						c4.473,5.759,14.099,10.543,21.391,10.631l1191.788,14.367c7.292,0.088,12.937-5.798,12.544-13.08l-0.135-2.499
						c-0.393-7.282-6.679-13.359-13.97-13.504L1102.809,1631.415z"/>
				</g>
				<g>
					<path style="fill:#FFFFFF;" d="M1261.6,1943.509c-0.204,0-0.408-0.003-0.612-0.006l-102.416-2.217
						c-14.321-0.311-26.022-10.284-27.217-23.2l-7.97-86.047c-0.45-4.881,1.123-9.685,4.432-13.531
						c3.723-4.318,9.31-6.989,15.334-7.329h0.003c8.64-0.485,20.804-1.376,33.688-2.318c27.11-1.981,60.849-4.444,79.802-4.451
						c0.003,0,0.01,0,0.016,0c13.356,0,24.796,8.199,27.822,19.943c5.079,19.72,4.156,57.004,2.664,96.722
						C1286.677,1933.558,1275.276,1943.509,1261.6,1943.509z M1143.523,1817.796c-4.237,0.24-8.128,2.078-10.682,5.04
						c-2.123,2.467-3.137,5.519-2.852,8.591l7.97,86.05c0.884,9.556,9.805,16.943,20.756,17.179l102.416,2.217
						c0.159,0.003,0.314,0.006,0.473,0.006c10.142,0,18.584-7.118,18.92-16.052c1.473-39.21,2.392-75.967-2.463-94.822
						c-2.234-8.672-11.232-14.965-21.4-14.965c-0.006,0-0.01,0-0.013,0c-18.713,0.006-52.32,2.46-79.323,4.435
						C1164.415,1816.417,1152.221,1817.307,1143.523,1817.796L1143.523,1817.796z"/>
					<g style="opacity:0.6;">
						<path style="fill:#FFFFFF;" d="M1357.091,1856.17c-7.292-0.11-11.805,5.588-10.031,12.661l6.43,25.627
							c1.775,7.073,9.193,12.87,16.485,12.881l936.208,1.49c7.292,0.012,13.2-5.945,13.129-13.237l-0.115-11.704
							c-0.072-7.292-6.096-13.348-13.387-13.457L1357.091,1856.17z"/>
					</g>
					<path style="fill:#FFFFFF;" d="M1258.952,2163.037c-0.204,0-0.408-0.003-0.612-0.007l-102.416-2.217
						c-14.317-0.311-26.019-10.281-27.217-23.193l-7.966-86.053c-0.45-4.881,1.123-9.685,4.431-13.531
						c3.723-4.318,9.31-6.989,15.334-7.329h0.003c8.64-0.486,20.807-1.376,33.688-2.318c27.11-1.981,60.846-4.444,79.799-4.451
						c0.003,0,0.01,0,0.016,0c13.359,0,24.795,8.199,27.822,19.947c5.079,19.717,4.156,57.001,2.664,96.719
						C1284.032,2153.086,1272.632,2163.037,1258.952,2163.037z M1140.879,2037.324c-4.237,0.24-8.128,2.078-10.682,5.04
						c-2.124,2.467-3.137,5.519-2.852,8.591l7.966,86.053c0.887,9.556,9.808,16.939,20.756,17.176l102.416,2.217
						c10.294,0.084,19.056-6.969,19.393-16.043c1.473-39.213,2.392-75.969-2.463-94.822c-2.234-8.675-11.233-14.968-21.4-14.968
						c-0.007,0-0.01,0-0.013,0c-18.713,0.007-52.317,2.46-79.317,4.435C1161.77,2035.945,1149.576,2036.835,1140.879,2037.324
						L1140.879,2037.324z"/>
					<path style="opacity:0.6;fill:#FFFFFF;" d="M1151.827,2046.946c21.535-1.211,68.36-5.396,90.543-5.405
						c9.4-0.003,17.575,5.774,19.681,13.951c4.09,15.879,3.143,47.423,2.048,76.534c-0.328,8.718-8.421,15.583-18.2,15.371
						l-81.844-1.773c-10.064-0.218-18.339-7.182-19.168-16.132l-6.368-68.764C1137.86,2053.615,1143.843,2047.396,1151.827,2046.946
						z"/>
					<g style="opacity:0.6;">
						<path style="fill:#FFFFFF;" d="M1354.444,2075.699c-7.292-0.11-11.805,5.588-10.031,12.661l6.43,25.627
							c1.775,7.073,9.193,12.87,16.485,12.881l936.207,1.49c7.292,0.012,13.2-5.945,13.129-13.237l-0.115-11.704
							c-0.071-7.292-6.096-13.348-13.387-13.457L1354.444,2075.699z"/>
					</g>
					<path style="fill:#FFFFFF;" d="M1256.307,2382.565c-0.204,0-0.408-0.003-0.612-0.007l-102.416-2.217
						c-14.321-0.311-26.022-10.281-27.217-23.197l-7.969-86.05c-0.45-4.881,1.123-9.685,4.432-13.531
						c3.722-4.318,9.31-6.989,15.334-7.329h0.003c8.64-0.485,20.804-1.376,33.688-2.318c27.11-1.981,60.849-4.444,79.802-4.451
						c0.003,0,0.01,0,0.016,0c13.359,0,24.796,8.199,27.822,19.947c5.079,19.72,4.156,57.004,2.664,96.719
						C1281.385,2372.615,1269.984,2382.565,1256.307,2382.565z M1138.231,2256.852c-4.237,0.24-8.128,2.078-10.682,5.04
						c-2.123,2.467-3.137,5.519-2.852,8.591l7.97,86.053c0.884,9.556,9.805,16.939,20.756,17.176l102.416,2.217
						c10.261,0.152,19.053-6.973,19.393-16.046c1.473-39.207,2.392-75.963-2.463-94.819c-2.234-8.675-11.233-14.968-21.4-14.968
						c-0.006,0-0.01,0-0.013,0c-18.713,0.007-52.32,2.46-79.323,4.435C1159.122,2255.473,1146.928,2256.364,1138.231,2256.852
						L1138.231,2256.852z"/>
					<path style="opacity:0.6;fill:#FFFFFF;" d="M1149.18,2266.475c21.535-1.212,68.36-5.396,90.544-5.405
						c9.4-0.003,17.575,5.774,19.681,13.95c4.09,15.88,3.142,47.423,2.048,76.534c-0.328,8.718-8.421,15.583-18.2,15.372
						l-81.843-1.773c-10.065-0.218-18.339-7.182-19.168-16.133l-6.368-68.764C1135.214,2273.144,1141.197,2266.924,1149.18,2266.475
						z"/>
					<g style="opacity:0.6;">
						<path style="fill:#FFFFFF;" d="M1351.798,2295.228c-7.292-0.109-11.805,5.588-10.031,12.661l6.43,25.627
							c1.775,7.073,9.193,12.87,16.485,12.881l936.207,1.49c7.292,0.012,13.2-5.945,13.129-13.237l-0.115-11.704
							c-0.072-7.292-6.096-13.348-13.387-13.458L1351.798,2295.228z"/>
					</g>
					<path style="fill:#FFFFFF;" d="M1253.66,2602.094c-0.204,0-0.408-0.003-0.612-0.007l-102.416-2.217
						c-14.317-0.311-26.019-10.281-27.217-23.193l-7.969-86.053c-0.45-4.881,1.126-9.685,4.438-13.531
						c3.719-4.318,9.31-6.989,15.331-7.329h0.003c8.64-0.485,20.808-1.376,33.688-2.318c27.11-1.981,60.846-4.444,79.799-4.451
						h0.006c13.366,0,24.805,8.199,27.832,19.947c5.079,19.72,4.156,57.004,2.664,96.719
						C1278.737,2592.143,1267.336,2602.094,1253.66,2602.094z M1135.589,2476.381c-4.237,0.24-8.131,2.075-10.685,5.04
						c-2.127,2.467-3.14,5.519-2.855,8.594l7.97,86.05c0.887,9.556,9.808,16.939,20.756,17.176l102.416,2.217
						c0.159,0.003,0.314,0.006,0.473,0.006c10.142,0,18.584-7.118,18.92-16.052c1.473-39.207,2.392-75.963-2.464-94.819
						c-2.269-8.814-11.071-14.968-21.406-14.968c-0.003,0-0.006,0-0.01,0c-18.71,0.007-52.313,2.46-79.313,4.435
						c-12.913,0.942-25.106,1.832-33.804,2.321H1135.589z"/>
					<path style="opacity:0.6;fill:#FFFFFF;" d="M1146.533,2486.003c21.536-1.211,68.36-5.396,90.544-5.404
						c9.401-0.004,17.575,5.774,19.681,13.95c4.09,15.88,3.143,47.423,2.048,76.534c-0.328,8.718-8.422,15.583-18.2,15.372
						l-81.844-1.773c-10.065-0.218-18.339-7.182-19.168-16.132l-6.368-68.764
						C1132.567,2492.673,1138.551,2486.453,1146.533,2486.003z"/>
					<g style="opacity:0.6;">
						<path style="fill:#FFFFFF;" d="M1349.152,2514.756c-7.292-0.11-11.805,5.588-10.031,12.661l6.43,25.627
							c1.775,7.073,9.193,12.87,16.485,12.881l936.207,1.491c7.292,0.012,13.2-5.945,13.129-13.237l-0.115-11.704
							c-0.072-7.292-6.096-13.348-13.387-13.458L1349.152,2514.756z"/>
					</g>
				</g>
			</g>
			
				<linearGradient id="SVGID_00000140705043214051034050000010056336298804746645_" gradientUnits="userSpaceOnUse" x1="1075.4667" y1="-525.7758" x2="424.1282" y2="331.0448" gradientTransform="matrix(0.918 0.3967 -0.3967 0.918 829.8821 440.8249)">
				<stop  offset="0" style="stop-color:#09005D"/>
				<stop  offset="1" style="stop-color:#1A0F91"/>
			</linearGradient>
			<path style="fill:url(#SVGID_00000140705043214051034050000010056336298804746645_);" d="M1764.301,480.591
				c-51.448-36.719-96.569-36.547-128.44-27.56c-29.072,8.199-48.186,35.942-45.792,66.054l11.893,149.652l162.797,16.427
				C1764.758,685.164,1865.198,552.604,1764.301,480.591z M1691.178,600.326c-22.443-0.27-40.417-18.682-40.146-41.126
				c0.27-22.443,18.683-40.417,41.126-40.147c22.443,0.271,40.418,18.684,40.147,41.127
				C1732.034,582.623,1713.621,600.597,1691.178,600.326z"/>
			<path style="fill:#FFFFFF;" d="M1619.048,605.431c-1.712,0-3.163-1.318-3.302-3.053l-1.894-23.831
				c-0.146-1.826,1.217-3.422,3.043-3.567c1.829-0.146,3.422,1.22,3.567,3.043l1.894,23.831c0.146,1.826-1.217,3.422-3.043,3.567
				C1619.226,605.428,1619.135,605.431,1619.048,605.431z M1615.335,558.727c-1.712,0-3.162-1.318-3.302-3.052l-1.437-18.095
				c-2.259-28.392,15.904-54.586,43.185-62.28c19.419-5.471,39.372-6.047,59.289-1.722c1.79,0.388,2.926,2.156,2.538,3.943
				c-0.392,1.793-2.153,2.923-3.943,2.538c-18.859-4.098-37.724-3.554-56.085,1.625c-24.245,6.837-40.385,30.124-38.375,55.372
				l1.437,18.095c0.146,1.826-1.217,3.422-3.043,3.567C1615.513,558.724,1615.422,558.727,1615.335,558.727z"/>
			
				<linearGradient id="SVGID_00000144334161014185141710000010554412389133735045_" gradientUnits="userSpaceOnUse" x1="1437.817" y1="184.5948" x2="777.1188" y2="1053.7279" gradientTransform="matrix(1 0.0121 -0.0121 1 563.391 122.0899)">
				<stop  offset="0" style="stop-color:#09005D"/>
				<stop  offset="1" style="stop-color:#1A0F91"/>
			</linearGradient>
			<path style="fill:url(#SVGID_00000144334161014185141710000010554412389133735045_);" d="M1378.37,762.661l0.906-75.157
				c0.313-25.945,22.066-46.464,47.986-45.263l517.961,24c22.987,1.065,41.391,19.441,42.491,42.426l3.46,72.267L1378.37,762.661z"
				/>
			<path style="fill:#FFFFFF;" d="M1572.749,671.699c-0.013,0-0.026,0-0.039,0l-22.284-0.269c-1.832-0.023-3.298-1.525-3.276-3.354
				c0.023-1.819,1.502-3.276,3.315-3.276c0.013,0,0.026,0,0.039,0l22.284,0.269c1.832,0.023,3.299,1.525,3.276,3.354
				C1576.041,670.243,1574.562,671.699,1572.749,671.699z"/>
			<path style="fill:#FFFFFF;" d="M1406.751,738.78c-0.013,0-0.026,0-0.039,0c-1.832-0.023-3.299-1.525-3.276-3.354l0.366-30.402
				c0.136-11.216,4.629-21.707,12.654-29.541c8.028-7.837,18.597-12.229,29.836-11.938l81.926,0.987
				c1.832,0.023,3.299,1.525,3.276,3.354c-0.023,1.819-1.502,3.276-3.315,3.276c-0.013,0-0.026,0-0.039,0l-81.926-0.987
				c-0.149-0.003-0.295-0.003-0.44-0.003c-9.284,0-18.033,3.561-24.686,10.057c-6.759,6.597-10.543,15.431-10.656,24.873
				l-0.366,30.402C1410.043,737.323,1408.564,738.78,1406.751,738.78z"/>
			
				<linearGradient id="SVGID_00000162337289976530533960000011990003951189653406_" gradientUnits="userSpaceOnUse" x1="1846.7072" y1="476.074" x2="2199.7065" y2="-200.0939">
				<stop  offset="0" style="stop-color:#4F52FF"/>
				<stop  offset="1" style="stop-color:#4042E2"/>
			</linearGradient>
			<path style="fill:url(#SVGID_00000162337289976530533960000011990003951189653406_);" d="M1216.339,733.196l906.128,10.898
				c32.581,0.392,60.154,24.175,65.325,56.346l0.713,4.439c5.664,35.239-21.798,67.076-57.486,66.645l-929.634-11.207
				c-21.357-0.257-38.162-18.32-36.88-39.641l2.502-41.583C1168.572,753.083,1190.283,732.883,1216.339,733.196z"/>
		</g>
		<g>
			<g>
				
					<linearGradient id="SVGID_00000077307086508033559980000008604688846738874811_" gradientUnits="userSpaceOnUse" x1="2828.2952" y1="1548.931" x2="2642.6711" y2="1890.3459">
					<stop  offset="0" style="stop-color:#09005D"/>
					<stop  offset="1" style="stop-color:#1A0F91"/>
				</linearGradient>
				<path style="fill:url(#SVGID_00000077307086508033559980000008604688846738874811_);" d="M2561.463,1922.273
					c0,0-12.863-48.427,55.604-56.499c68.468-8.071,87.514,109.768,33.232,125.691
					C2596.018,2007.387,2561.463,1922.273,2561.463,1922.273z"/>
				
					<linearGradient id="SVGID_00000024679907712875908430000015703156400753650592_" gradientUnits="userSpaceOnUse" x1="2646.4185" y1="2297.2842" x2="3223.1792" y2="3139.2214">
					<stop  offset="0" style="stop-color:#E1473D"/>
					<stop  offset="1" style="stop-color:#E9605A"/>
				</linearGradient>
				<path style="fill:url(#SVGID_00000024679907712875908430000015703156400753650592_);" d="M3028.008,2178.41
					c-21.21-22.945-50.971-36.086-82.215-36.31l-409.639-2.902c-33.326-0.236-65.058,14.246-86.719,39.573
					c-21.66,25.327-31.042,59.073-25.638,91.958l82.023,499.324h515.692l36.243-506.684
					C3059.986,2232.203,3049.217,2201.354,3028.008,2178.41z"/>
				
					<linearGradient id="SVGID_00000168806612280687707940000015479506133800245695_" gradientUnits="userSpaceOnUse" x1="2473.1289" y1="2444.2612" x2="2647.4744" y2="2444.2612">
					<stop  offset="0" style="stop-color:#FEBBBA"/>
					<stop  offset="1" style="stop-color:#FF928E"/>
				</linearGradient>
				<polygon style="fill:url(#SVGID_00000168806612280687707940000015479506133800245695_);" points="2473.129,2421.221 
					2615.268,2415.205 2647.474,2473.318 2473.129,2460.11 				"/>
				<rect x="2565.941" y="2962.306" style="fill:#7D97F4;" width="364.618" height="36.462"/>
				<g>
					<path style="fill:#7D97F4;" d="M2537.318,2789.941l26.106,424.701c0.173,2.82,2.247,6.211,4.746,6.211h17.22
						c2.627,0,7.068-2.991,7.068-5.964v-424.948H2537.318z"/>
					<path style="fill:#7D97F4;" d="M2968.762,2789.941l-26.107,424.701c-0.173,2.82-2.246,6.211-4.746,6.211h-17.219
						c-2.627,0-3.391-2.991-3.391-5.964v-424.948H2968.762z"/>
				</g>
				
					<linearGradient id="SVGID_00000135686837317165707590000008700115639633523081_" gradientUnits="userSpaceOnUse" x1="1372.9224" y1="2762.4812" x2="2086.4001" y2="2759.5452">
					<stop  offset="0" style="stop-color:#FF928E"/>
					<stop  offset="1" style="stop-color:#FE7062"/>
				</linearGradient>
				<path style="fill:url(#SVGID_00000135686837317165707590000008700115639633523081_);" d="M3069.777,2757.515
					c0,32.554-26.39,58.944-58.944,58.944h-511.907c-32.554,0-58.944-26.39-58.944-58.944v-1.442
					c0-32.554,26.39-58.944,58.944-58.944h511.907c32.554,0,58.944,26.39,58.944,58.944V2757.515z"/>
				<g>
					
						<linearGradient id="SVGID_00000018228310375572065060000004377642502584917915_" gradientUnits="userSpaceOnUse" x1="6342.4829" y1="3219.8789" x2="5934.6948" y2="3452.6384" gradientTransform="matrix(-0.9155 0.4023 0.4023 0.9155 6550.6606 -2678.031)">
						<stop  offset="0" style="stop-color:#FEBBBA"/>
						<stop  offset="1" style="stop-color:#FF928E"/>
					</linearGradient>
					<path style="fill:url(#SVGID_00000018228310375572065060000004377642502584917915_);" d="M2248.111,3151.19
						c0.375-0.372,56.286-532.026,71.503-586.434c2.561-9.152,9.594-16.329,18.687-19.097l71.285-21.696l153.734,90.328
						l-165.003,27.909c52.989,84.961-58.065,294.638-94.854,369.506c-3.733,7.598-0.29,16.754,7.527,20.006l34.046,14.163
						c-21.23,55.628-54.455,99.96-99.249,133.395L2248.111,3151.19z"/>
					
						<linearGradient id="SVGID_00000013912361372980621660000005015965728565681563_" gradientUnits="userSpaceOnUse" x1="2122.8643" y1="2484.9827" x2="2090.7822" y2="2976.9087" gradientTransform="matrix(0.6441 -0.765 0.765 0.6441 -1088.8916 3040.5171)">
						<stop  offset="0" style="stop-color:#09005D"/>
						<stop  offset="1" style="stop-color:#1A0F91"/>
					</linearGradient>
					<path style="fill:url(#SVGID_00000013912361372980621660000005015965728565681563_);" d="M2325.757,3038.626
						c0,0,16.995-1.733,27.858,9.308c5.198,5.282,5.756,13.607,1.977,19.982c-16.79,28.326-72.714,120.533-105.137,148.028
						c-2.658,2.254-6.783,0.766-7.463-2.652c-1.894-9.507-3.308-29.533,5.508-63.632l-0.198,4.406
						c-0.251,5.577,6.833,8.154,10.18,3.686C2277.242,3132.703,2314.513,3079.544,2325.757,3038.626z"/>
				</g>
				
					<linearGradient id="SVGID_00000109734050353932887980000003468907421227376002_" gradientUnits="userSpaceOnUse" x1="6537.2622" y1="3023.7605" x2="7967.2075" y2="2128.5925" gradientTransform="matrix(-0.9615 0.2748 0.2748 0.9615 7563.9141 -1920.5399)">
					<stop  offset="0" style="stop-color:#FEBBBA"/>
					<stop  offset="1" style="stop-color:#FF928E"/>
				</linearGradient>
				<path style="fill:url(#SVGID_00000109734050353932887980000003468907421227376002_);" d="M2352.577,3174.784
					c0.349-0.396,12.26-103.46,12.609-103.855c-25.943-223.495,7.355-430.768,18.836-486.085c1.932-9.304,8.46-16.944,17.343-20.324
					l69.644-26.495l164.208,126.305l-167.408-7.576c58.646,81.16-37.888,297.906-69.498,375.102
					c-3.208,7.834,0.85,16.735,8.87,19.448l34.931,11.814c-17.396,56.944-47.529,103.432-89.945,139.837L2352.577,3174.784z"/>
				
					<linearGradient id="SVGID_00000147199129653626899150000002037405967831263370_" gradientUnits="userSpaceOnUse" x1="2152.6311" y1="1838.7185" x2="2120.5488" y2="2330.6467" gradientTransform="matrix(0.5905 -0.807 0.807 0.5905 -480.0079 3697.0984)">
					<stop  offset="0" style="stop-color:#09005D"/>
					<stop  offset="1" style="stop-color:#1A0F91"/>
				</linearGradient>
				<path style="fill:url(#SVGID_00000147199129653626899150000002037405967831263370_);" d="M2422.386,3057.198
					c0,0,16.837-2.885,28.427,7.391c5.545,4.917,6.668,13.185,3.332,19.802c-14.824,29.403-64.346,125.2-94.825,154.836
					c-2.498,2.43-6.715,1.226-7.626-2.138c-2.536-9.356-5.309-29.24,1.167-63.859l0.102,4.41c0.129,5.581,7.372,7.671,10.407,2.985
					C2380.383,3154.358,2413.951,3098.787,2422.386,3057.198z"/>
				
					<linearGradient id="SVGID_00000144297922900800485840000006672392901612855971_" gradientUnits="userSpaceOnUse" x1="2747.7769" y1="2420.5334" x2="2376.6482" y2="3091.4194">
					<stop  offset="0" style="stop-color:#4F52FF"/>
					<stop  offset="1" style="stop-color:#4042E2"/>
				</linearGradient>
				<path style="fill:url(#SVGID_00000144297922900800485840000006672392901612855971_);" d="M2909.15,2662.527
					c-5.511-45.568-72.674-145.465-72.674-145.465s-260.507-8.474-290.929,3.332c-23.613,9.164-119.965,3.985-161.916,1.208
					c-1.596-0.105-3.036,0.952-3.413,2.504c-0.377,1.554,0.417,3.156,1.883,3.792c102.465,44.571,112.314,69.971,125.865,156.365
					c0,0,103.124,62.695,312.316,45.401C2890.578,2723.855,2914.661,2708.096,2909.15,2662.527z"/>
				<path style="fill:#91B3FA;" d="M2654.84,2502.263c0,0-78.212-74.474-116.712-123.801
					c-20.811-26.664-27.346-61.766-17.722-94.192c17.577-59.218,48.814-120.551,51.663-130.097
					c4.366-14.632,92.063-14.023,92.063-14.023s172.568,111.998,240.371,301.716l-76.146,23.706c0,0-45.058-75.593-89.577-123.653
					c0,0,77.035,101.765,79.748,143.426L2654.84,2502.263z"/>
				
					<linearGradient id="SVGID_00000137124835189847243470000010985026807576437422_" gradientUnits="userSpaceOnUse" x1="1745.3622" y1="2257.6421" x2="1716.9667" y2="2075.4385" gradientTransform="matrix(1 0 0 1 888.874 0)">
					<stop  offset="0" style="stop-color:#FEBBBA"/>
					<stop  offset="1" style="stop-color:#FF928E"/>
				</linearGradient>
				<path style="fill:url(#SVGID_00000137124835189847243470000010985026807576437422_);" d="M2561.463,2072.401
					c0.916,3.042,23.805,78.922,25.595,80.497c1.791,1.575,50.197,4.178,72.982-11.394l-46.505-102.876L2561.463,2072.401z"/>
				
					<linearGradient id="SVGID_00000014636690105096053680000007763204677304055732_" gradientUnits="userSpaceOnUse" x1="2575.0508" y1="370.4722" x2="2758.5403" y2="495.1066" gradientTransform="matrix(0.723 -0.6909 0.6909 0.723 368.0431 3572.7656)">
					<stop  offset="0" style="stop-color:#FEBBBA"/>
					<stop  offset="1" style="stop-color:#FF928E"/>
				</linearGradient>
				<path style="fill:url(#SVGID_00000014636690105096053680000007763204677304055732_);" d="M2498.512,1987.165
					c0,0-16.296,37.641,2.85,94.868c19.146,57.228,50.436,62.2,70.251,48.052c19.815-14.147,45.51-39.428,48.704-91.267
					C2623.512,1986.979,2520.96,1939.556,2498.512,1987.165z"/>
				
					<linearGradient id="SVGID_00000141420168551701955620000016361382234254361743_" gradientUnits="userSpaceOnUse" x1="2500.8665" y1="2064.1729" x2="2626.8254" y2="1921.6401">
					<stop  offset="0" style="stop-color:#09005D"/>
					<stop  offset="1" style="stop-color:#1A0F91"/>
				</linearGradient>
				<path style="fill:url(#SVGID_00000141420168551701955620000016361382234254361743_);" d="M2586.112,1923.608
					c-18.653-10.267-38.125-13.113-56.167-10.471c-13.673,1.931-26.534,7.015-37.666,14.386
					c-11.334,7.42-20.37,17.178-27.079,28.412c-2.191,4.542-3.738,9.351-4.73,14.394c-3.729,18.951,1.315,38.572,13.698,53.395
					c9.266,11.09,18.612,20.265,18.612,20.265l1.614-11.653c0-14.588,11.479-30.353,25.711-34.876
					c14.232-4.523,29.263-0.965,40.089,9.252c14.029,13.263,21.697,31.054,21.697,31.054l4.648-1.374c0,0-0.37-22.668,14.014-17.382
					c14.333,5.338,20.196,35.274,20.196,35.274s30.48,13.977,33.327-26.785C2656.922,1986.784,2638.972,1952.578,2586.112,1923.608z
					"/>
				
					<linearGradient id="SVGID_00000000212593035851041730000001799205677014665907_" gradientUnits="userSpaceOnUse" x1="2586.0471" y1="354.2819" x2="2769.5386" y2="478.9175" gradientTransform="matrix(0.723 -0.6909 0.6909 0.723 368.0431 3572.7656)">
					<stop  offset="0" style="stop-color:#FEBBBA"/>
					<stop  offset="1" style="stop-color:#FF928E"/>
				</linearGradient>
				<path style="fill:url(#SVGID_00000000212593035851041730000001799205677014665907_);" d="M2593.54,2036.392
					c0,0-18.008-39.71,7.216-41.146c25.224-1.436,14.962,38.28,9.935,52.771L2593.54,2036.392z"/>
				
					<linearGradient id="SVGID_00000170974394199214249280000013433811881799244717_" gradientUnits="userSpaceOnUse" x1="1876.4291" y1="2489.946" x2="2292.7485" y2="2489.946" gradientTransform="matrix(1 0 0 1 888.874 0)">
					<stop  offset="0" style="stop-color:#FEBBBA"/>
					<stop  offset="1" style="stop-color:#FF928E"/>
				</linearGradient>
				<path style="fill:url(#SVGID_00000170974394199214249280000013433811881799244717_);" d="M2505.821,2531.652l58.768-63.941
					l67.871,18.276c0,0,79.127,12.26,124.415,0c45.288-12.259,45.288-12.259,45.288-12.259l102.34-31.861l16.073,45.425
					c4.081,11.533-0.021,24.337-9.992,31.423c-8.854,6.292-19.232,13.206-25.847,16.1c-13.477,5.896-310.462,1.865-310.462,1.865
					L2505.821,2531.652z"/>
				<g>
					
						<linearGradient id="SVGID_00000111902540015477361030000001179542157763153321_" gradientUnits="userSpaceOnUse" x1="2357.8018" y1="2415.2043" x2="2581.8977" y2="2415.2043">
						<stop  offset="0" style="stop-color:#09005D"/>
						<stop  offset="1" style="stop-color:#1A0F91"/>
					</linearGradient>
					<path style="fill:url(#SVGID_00000111902540015477361030000001179542157763153321_);" d="M2581.402,2532.041l-112.663-249.439
						c-1.154-2.554-4.019-3.859-6.701-3.051l-100.259,30.166c-1.477,0.445-2.705,1.481-3.392,2.861
						c-0.687,1.382-0.773,2.986-0.237,4.432l85.405,230.439c0.875,2.36,3.219,3.843,5.727,3.624l127.516-11.167
						c1.805-0.157,3.42-1.18,4.335-2.743C2582.047,2535.601,2582.148,2533.692,2581.402,2532.041z"/>
					
						<linearGradient id="SVGID_00000145016746662274887060000008634896889884197516_" gradientUnits="userSpaceOnUse" x1="2374.3198" y1="2298.802" x2="2439.2634" y2="2298.802">
						<stop  offset="0" style="stop-color:#4F52FF"/>
						<stop  offset="1" style="stop-color:#4042E2"/>
					</linearGradient>
					<path style="fill:url(#SVGID_00000145016746662274887060000008634896889884197516_);" d="M2438.849,2291.325l-3.115-7.066
						c-1.03-2.336-3.691-3.476-6.093-2.612l-14.855,5.344c-0.642,0.232-1.358,0.013-1.764-0.535l-2.637-3.571
						c-2.037-2.758-5.708-3.747-8.855-2.386l-13.653,5.991c-2.699,1.167-4.245,3.826-4.245,6.765v4.293
						c0,0.677-0.64,1.275-1.286,1.475l-4.542,1.378c-1.309,0.406-2.435,1.346-3.014,2.588c-0.579,1.243-0.632,2.67-0.103,3.934
						l3.261,7.805c1.011,2.41,3.742,3.59,6.188,2.67l51.982-19.564c1.251-0.468,2.25-1.433,2.768-2.665
						C2439.402,2293.937,2439.388,2292.546,2438.849,2291.325z"/>
				</g>
				
					<linearGradient id="SVGID_00000049204493703754612720000007415503858107152060_" gradientUnits="userSpaceOnUse" x1="2378.1384" y1="2425.3054" x2="2417.1055" y2="2425.3054">
					<stop  offset="0" style="stop-color:#FEBBBA"/>
					<stop  offset="1" style="stop-color:#FF928E"/>
				</linearGradient>
				<path style="fill:url(#SVGID_00000049204493703754612720000007415503858107152060_);" d="M2378.278,2406.271
					c0,0,21.462-29.167,22.288-20.362c0.826,8.805,0,27.791,0,27.791s4.127,3.577,10.181,16.784s9.312,33.922,2.73,35.809
					C2406.895,2468.181,2375.802,2427.458,2378.278,2406.271z"/>
				
					<linearGradient id="SVGID_00000008869011033724506770000003969174267887090569_" gradientUnits="userSpaceOnUse" x1="2574.4644" y1="2439.519" x2="2602.3408" y2="2439.519">
					<stop  offset="0" style="stop-color:#09005D"/>
					<stop  offset="1" style="stop-color:#1A0F91"/>
				</linearGradient>
				<path style="fill:url(#SVGID_00000008869011033724506770000003969174267887090569_);" d="M2601.64,2405.665
					c-0.639-0.832-1.629-1.32-2.678-1.32c-2.294,0-4.32,1.498-4.993,3.691l-19.505,63.63l10.206,3.027l17.558-66.1
					C2602.497,2407.579,2602.28,2406.495,2601.64,2405.665z"/>
				<path style="fill:#FFFFFF;" d="M2481.187,2020.323c-0.24,0-0.476-0.104-0.641-0.301c-0.34-0.417-33.817-41.903,0.081-73.047
					c0.337-0.304,0.861-0.285,1.172,0.052c0.307,0.337,0.285,0.861-0.052,1.172c-32.733,30.075-0.253,70.366,0.081,70.768
					c0.288,0.353,0.24,0.877-0.113,1.168C2481.559,2020.262,2481.371,2020.323,2481.187,2020.323z"/>
			</g>
			<g>
				<g>
					<rect x="981.51" y="2889.383" style="fill:#7D97F4;" width="931.433" height="82.868"/>
					<g>
						<path style="fill:#7D97F4;" d="M964.734,2879.438l32.82,333.183c1.388,14.061,7.131,24.806,13.778,24.806h13.143
							c7.44,0,13.598-13.208,14.062-29.271l9.477-328.717H964.734z"/>
						<path style="fill:#7D97F4;" d="M1954.927,2879.438l-32.82,333.183c-1.388,14.061-7.131,24.806-13.778,24.806h-13.143
							c-7.44,0-13.597-13.208-14.062-29.271l-9.477-328.717H1954.927z"/>
					</g>
					
						<linearGradient id="SVGID_00000119796698731117221610000005062979812794396091_" gradientUnits="userSpaceOnUse" x1="973.95" y1="2536.8032" x2="2416.7791" y2="2536.8032">
						<stop  offset="0" style="stop-color:#E1473D"/>
						<stop  offset="1" style="stop-color:#E9605A"/>
					</linearGradient>
					<path style="fill:url(#SVGID_00000119796698731117221610000005062979812794396091_);" d="M2041.007,2769.172
						c-11.019-10.96-26.236-17.072-41.776-16.989l-867.849,4.769c-24.474,0.135-47.09-13.267-58.668-34.829L779.68,2176.408
						c-19.074-35.524-60.97-52.162-99.224-39.412l-7.832,2.607c-21.947,7.317-39.842,23.476-49.346,44.567
						c-9.505,21.094-9.761,45.198-0.702,66.487l245.348,576.57c23.104,54.296,75.841,90.048,134.831,91.406l964.157,22.216
						c23.872,0.552,47.526-8.547,64.604-25.235c17.078-16.69,27.274-39.56,27.274-63.439v-41.607
						C2058.79,2795.029,2052.026,2780.129,2041.007,2769.172z"/>
				</g>
				<g>
					
						<linearGradient id="SVGID_00000080928723913163064790000010122949862251960461_" gradientUnits="userSpaceOnUse" x1="268.1623" y1="2308.0344" x2="219.4272" y2="2451.3733" gradientTransform="matrix(0.8649 -0.502 0.502 0.8649 191.4425 325.8896)">
						<stop  offset="0" style="stop-color:#FEBBBA"/>
						<stop  offset="1" style="stop-color:#FF928E"/>
					</linearGradient>
					<path style="fill:url(#SVGID_00000080928723913163064790000010122949862251960461_);" d="M1652.211,2165.247l-6.148-9.999
						c-3.538-5.754-9.5-9.587-16.204-10.418l-65.427-8.111c0,0-2.902-7.347,9.118-16.047c12.02-8.699,4.919-22.861,4.919-22.861
						s-16.077,13.188-39.342,33.511c-13.306,11.623-18.357,27.258-20.247,38.521l-10.473,22.958
						c5.845,6.886,14.879,12.342,28.616,10.601l2.38-17.575C1578.746,2187.12,1616.174,2179.442,1652.211,2165.247z"/>
					
						<linearGradient id="SVGID_00000165940660014081348710000000262170898512885950_" gradientUnits="userSpaceOnUse" x1="1690.3971" y1="1547.1602" x2="1541.2429" y2="1954.8491">
						<stop  offset="0" style="stop-color:#FF928E"/>
						<stop  offset="1" style="stop-color:#FE7062"/>
					</linearGradient>
					<path style="fill:url(#SVGID_00000165940660014081348710000000262170898512885950_);" d="M1508.408,2191.119
						c-7.045,15.443-14.046,30.907-21.086,46.353c-9.054,19.863-16.612,45.24-31.172,61.826
						c-17.166,19.555-45.279,16.127-62.859-0.96c-19.274-18.733-39.863-35.972-59.795-54.017c-5.257-4.76-10.657-9.359-15.957-14.07
						l-1.505,121.297c48.582,22.139,102.08,59.589,157.735,40.56c15.328-5.241,30.685-14.993,39.392-28.978
						c5.216-8.378,9.666-19.986,10.672-29.858c0.002-0.019,13.396-131.388,13.396-131.388
						C1521.376,2203.894,1515.153,2199.065,1508.408,2191.119z"/>
				</g>
				<g>
					<g>
						
							<linearGradient id="SVGID_00000083797687890756735150000012351391266122904239_" gradientUnits="userSpaceOnUse" x1="2864.9348" y1="3196.083" x2="3061.2102" y2="3196.083" gradientTransform="matrix(1 0 0 1 -1375.1613 0)">
							<stop  offset="0" style="stop-color:#53D8FF"/>
							<stop  offset="0.7009" style="stop-color:#406EFA"/>
							<stop  offset="0.844" style="stop-color:#3C58F9"/>
							<stop  offset="0.92" style="stop-color:#3A4CF8"/>
							<stop  offset="1" style="stop-color:#3840F7"/>
						</linearGradient>
						<path style="fill:url(#SVGID_00000083797687890756735150000012351391266122904239_);" d="M1568.699,3196.906
							c-48.117,0-69.407-4.128-78.926-7.893c1.849,7.902,8.888,14.141,17.781,14.141h170.223c5.732,0,9.351-5.487,7.981-10.455
							C1666.355,3194.258,1625.143,3196.906,1568.699,3196.906z"/>
						
							<linearGradient id="SVGID_00000037662534738356865040000004852045352402902203_" gradientUnits="userSpaceOnUse" x1="3016.1567" y1="2818.6694" x2="2962.5293" y2="3189.188" gradientTransform="matrix(1 0 0 1 -1375.1613 0)">
							<stop  offset="0" style="stop-color:#09005D"/>
							<stop  offset="1" style="stop-color:#1A0F91"/>
						</linearGradient>
						<path style="fill:url(#SVGID_00000037662534738356865040000004852045352402902203_);" d="M1685.759,3192.698
							c-0.276-1.002-0.682-1.988-1.394-2.897c-12.966-16.555-39.014-42.553-74.446-42.055c-51.907,0.73-70.005,6.362-110.341,0.316
							l-9.516,31.542c-0.969,3.215-0.987,6.426-0.288,9.408c9.519,3.765,30.809,7.893,78.926,7.893
							C1625.143,3196.906,1666.355,3194.258,1685.759,3192.698z"/>
					</g>
					
						<linearGradient id="SVGID_00000165202702785752862330000013338587435834415777_" gradientUnits="userSpaceOnUse" x1="2874.7395" y1="3136.9351" x2="2927.845" y2="3136.9351" gradientTransform="matrix(1 0 0 1 -1375.1613 0)">
						<stop  offset="0" style="stop-color:#FEBBBA"/>
						<stop  offset="1" style="stop-color:#FF928E"/>
					</linearGradient>
					<path style="fill:url(#SVGID_00000165202702785752862330000013338587435834415777_);" d="M1511.259,3114.073l-11.68,39.726
						c0,0,25.877,11.781,48.637,2.324l4.469-34.419L1511.259,3114.073z"/>
					<g>
						
							<linearGradient id="SVGID_00000054260307365154880710000009230014650551831192_" gradientUnits="userSpaceOnUse" x1="3172.782" y1="3157.186" x2="3331.2517" y2="3157.186" gradientTransform="matrix(1 0 0 1 -1375.1613 0)">
							<stop  offset="0" style="stop-color:#53D8FF"/>
							<stop  offset="0.7009" style="stop-color:#406EFA"/>
							<stop  offset="0.844" style="stop-color:#3C58F9"/>
							<stop  offset="0.92" style="stop-color:#3A4CF8"/>
							<stop  offset="1" style="stop-color:#3840F7"/>
						</linearGradient>
						<path style="fill:url(#SVGID_00000054260307365154880710000009230014650551831192_);" d="M1864.066,3171.888
							c-37.509,30.138-56.678,40.271-66.445,43.312c6.368,4.972,15.743,5.403,22.676-0.167l132.695-106.62
							c4.469-3.59,3.869-10.114-0.296-13.11C1938.543,3108.666,1908.066,3136.534,1864.066,3171.888z"/>
						
							<linearGradient id="SVGID_00000081607196877461016760000011887069755026607543_" gradientUnits="userSpaceOnUse" x1="3281.7849" y1="2857.1138" x2="3228.157" y2="3227.6335" gradientTransform="matrix(1 0 0 1 -1375.1613 0)">
							<stop  offset="0" style="stop-color:#09005D"/>
							<stop  offset="1" style="stop-color:#1A0F91"/>
						</linearGradient>
						<path style="fill:url(#SVGID_00000081607196877461016760000011887069755026607543_);" d="M1952.696,3095.302
							c-0.84-0.604-1.771-1.115-2.893-1.375c-20.427-4.722-56.94-8.578-84.25,14.002c-40.008,33.079-50.605,48.783-85.818,69.358
							l12.245,30.431c1.249,3.101,3.236,5.604,5.641,7.481c9.767-3.041,28.937-13.174,66.445-43.312
							C1908.066,3136.534,1938.543,3108.666,1952.696,3095.302z"/>
					</g>
					
						<linearGradient id="SVGID_00000029737931021006559090000018035843148848279703_" gradientUnits="userSpaceOnUse" x1="2581.0886" y1="2897.3054" x2="3001.4832" y2="2897.3054" gradientTransform="matrix(1 0 0 1 -1375.1613 0)">
						<stop  offset="0" style="stop-color:#09005D"/>
						<stop  offset="1" style="stop-color:#1A0F91"/>
					</linearGradient>
					<path style="fill:url(#SVGID_00000029737931021006559090000018035843148848279703_);" d="M1261.388,2661.459
						c0,0,288.077,23.521,347.174,51.342c59.097,27.82-48.227,417.729-48.227,417.729s-16.088,7.743-51.887-3.385
						c0,0,36.71-287.738,9.393-350.132l-311.914-51.018L1261.388,2661.459z"/>
					
						<linearGradient id="SVGID_00000002345349195870156530000015147054452630339732_" gradientUnits="userSpaceOnUse" x1="10742.7578" y1="7139.9683" x2="10695.877" y2="7115.249" gradientTransform="matrix(1 0 0 1 -1375.1613 0)">
						<stop  offset="0" style="stop-color:#FEBBBA"/>
						<stop  offset="1" style="stop-color:#FF928E"/>
					</linearGradient>
					<path style="fill:url(#SVGID_00000002345349195870156530000015147054452630339732_);" d="M1751.113,3122.516
						c2.675,2.438,28.622,54.771,28.622,54.771s28.888-6.25,34.779-24.531l-25.993-47.234L1751.113,3122.516z"/>
					
						<linearGradient id="SVGID_00000156548030203131960110000011585249049333871265_" gradientUnits="userSpaceOnUse" x1="2820.7927" y1="2883.3367" x2="2359.269" y2="3406.613" gradientTransform="matrix(1 0 0 1 -1375.1613 0)">
						<stop  offset="0" style="stop-color:#09005D"/>
						<stop  offset="1" style="stop-color:#1A0F91"/>
					</linearGradient>
					<path style="fill:url(#SVGID_00000156548030203131960110000011585249049333871265_);" d="M1087.881,2659.051
						c0,0-9.388,22.589-9.005,52.607c0.53,41.514,33.905,75.202,75.371,77.272l340.555,15.53
						c7.192,0.328,13.277,5.305,15.079,12.276c8.002,30.954,47.119,126.011,238.329,315.688c5.087,5.047,13.012,5.906,19.07,2.078
						l27.219-17.193c2.857-1.805,3.77-5.551,2.062-8.467l-198.289-338.608c-10.414-17.188-27.156-29.603-46.627-34.58
						l-290.257-74.196L1087.881,2659.051z"/>
					
						<linearGradient id="SVGID_00000139260339340159342540000011158354543104896163_" gradientUnits="userSpaceOnUse" x1="1133.9644" y1="3021.3892" x2="1195.8387" y2="2625.834">
						<stop  offset="0" style="stop-color:#FF928E"/>
						<stop  offset="1" style="stop-color:#FE7062"/>
					</linearGradient>
					<path style="fill:url(#SVGID_00000139260339340159342540000011158354543104896163_);" d="M1086.962,2658.053
						c0,0-3.376-168.792,30.366-327.644c12.46-58.659,44.889-111.177,91.994-148.29l15.758-12.416l78.925,32.063l40.56,70.083
						c22.329,44.657,16.846,141.641,0,188.641c-28.166,78.588-50.691,160.026-60.291,200.029
						C1284.275,2660.519,1153.555,2677.784,1086.962,2658.053z"/>
					
						<linearGradient id="SVGID_00000129923866721363767700000009349370873388433817_" gradientUnits="userSpaceOnUse" x1="2592.8428" y1="2131.001" x2="2706.2976" y2="2131.001" gradientTransform="matrix(1 0 0 1 -1375.1613 0)">
						<stop  offset="0" style="stop-color:#FEBBBA"/>
						<stop  offset="1" style="stop-color:#FF928E"/>
					</linearGradient>
					<path style="fill:url(#SVGID_00000129923866721363767700000009349370873388433817_);" d="M1279.342,2043.916l-61.66,143.051
						c0,0,19.731,44.396,88.79,27.131l24.664-98.657L1279.342,2043.916z"/>
					<g>
						
							<linearGradient id="SVGID_00000056415780407779403500000015957002282749322650_" gradientUnits="userSpaceOnUse" x1="1778.2549" y1="4164.8232" x2="1616.5551" y2="4378.7388" gradientTransform="matrix(0.9372 -0.3487 0.3487 0.9372 -1746.7306 -1292.5793)">
							<stop  offset="0" style="stop-color:#FEBBBA"/>
							<stop  offset="1" style="stop-color:#FF928E"/>
						</linearGradient>
						<path style="fill:url(#SVGID_00000056415780407779403500000015957002282749322650_);" d="M1401.537,1978.674
							c0.743,1.999,2.377,142.934,2.377,142.934l-80.492-0.778l-21.393-133.348
							C1302.028,1987.483,1389.092,1945.226,1401.537,1978.674z"/>
						
							<linearGradient id="SVGID_00000090296307067673425930000015874006000266239104_" gradientUnits="userSpaceOnUse" x1="1550.0071" y1="1530.0344" x2="1443.9368" y2="1795.2102">
							<stop  offset="0" style="stop-color:#09005D"/>
							<stop  offset="1" style="stop-color:#1A0F91"/>
						</linearGradient>
						<path style="fill:url(#SVGID_00000090296307067673425930000015874006000266239104_);" d="M1325.637,2013.124l5.766,71.079
							c0.074,0.912,0.264,1.786,0.582,2.644c1.945,5.249,9.959,22.816,27.433,13.521c15.855-8.436,30.451-15.898,41.854-14.938
							c5.12,0.431,9.07,4.669,9.128,9.807c0.145,12.805-0.061,41.666-4.067,66.713c-0.812,5.083-5.414,8.655-10.549,8.291
							c-15.471-1.097-48.036-4.323-73.626-13.055c-3.468-1.183-6.016-4.125-6.639-7.736c-3.034-17.603-12.457-71.067-17.386-85.56
							c-4.628-13.603-23.556-18.259-31.643-19.648c-2.651-0.455-4.979-1.963-6.481-4.195c-5.311-7.887-14.379-26.837,9.026-40.465
							c4.898-2.852,6.448-9.132,3.448-13.942c-5.972-9.574-10.969-25.076,6.619-38.013c17.877-13.15,34.941-5.794,44.777,1.057
							c3.977,2.77,9.27,2.178,12.728-1.217c1.969-1.934,4.804-3.041,8.83-1.597c5.426,1.945,11.318-1.454,12.691-7.052
							c2.638-10.754,10.045-23.265,30.142-24.135c35.66-1.544,47.792,35.719,43.547,60.01
							c-4.244,24.291-43.002,23.767-63.956,16.513c-15.932-5.516-32.259,7.404-39.17,13.915
							C1326.501,2007.181,1325.394,2010.126,1325.637,2013.124z"/>
						
							<linearGradient id="SVGID_00000127742927583826095620000014042007273695547521_" gradientUnits="userSpaceOnUse" x1="1541.4286" y1="4334.2266" x2="1671.1243" y2="4201.1626" gradientTransform="matrix(0.9372 -0.3487 0.3487 0.9372 -1746.7306 -1292.5793)">
							<stop  offset="0" style="stop-color:#FEBBBA"/>
							<stop  offset="1" style="stop-color:#FF928E"/>
						</linearGradient>
						<path style="fill:url(#SVGID_00000127742927583826095620000014042007273695547521_);" d="M1300.49,2089.748
							c0,0,5.579-42.642-11.041-49.197c-16.619-6.555-37.042,3.128-26.107,30.782
							C1276.944,2105.73,1300.49,2089.748,1300.49,2089.748z"/>
					</g>
					
						<linearGradient id="SVGID_00000066488509643297288940000016095428374722435253_" gradientUnits="userSpaceOnUse" x1="2098.554" y1="1975.3826" x2="1684.9121" y2="2668.2334" gradientTransform="matrix(0.9551 0.2964 -0.2964 0.9551 4.1848 -175.8474)">
						<stop  offset="0" style="stop-color:#FF928E"/>
						<stop  offset="1" style="stop-color:#FE7062"/>
					</linearGradient>
					<path style="fill:url(#SVGID_00000066488509643297288940000016095428374722435253_);" d="M1469.319,2522.482
						c-203.271,63.812-192.457-222.288-193.773-224.301c-80.581-123.138-125.83,40.958-118.021,64.091
						c71.472,258.759,251.649,245.948,321.855,195.119C1470.638,2543.792,1468.644,2531.822,1469.319,2522.482z"/>
					
						<linearGradient id="SVGID_00000146492276458827968230000018081741894736589742_" gradientUnits="userSpaceOnUse" x1="-1324.6248" y1="6402.876" x2="87.4415" y2="4559.8994" gradientTransform="matrix(0.9551 0.2964 -0.2964 0.9551 4.1848 -175.8474)">
						<stop  offset="0" style="stop-color:#E1473D"/>
						<stop  offset="1" style="stop-color:#E9605A"/>
					</linearGradient>
					<path style="fill:url(#SVGID_00000146492276458827968230000018081741894736589742_);" d="M1313.497,2478.349
						c-1.122-0.348-2.132-1.079-2.817-2.145c-30.798-47.994-39.49-114.685-41.358-162.181c-0.112-2.853,2.111-5.258,4.964-5.37
						c2.855-0.113,5.258,2.108,5.37,4.964c1.488,37.833,8.627,108.538,39.729,157.002c1.542,2.403,0.844,5.601-1.56,7.145
						C1316.488,2478.622,1314.905,2478.786,1313.497,2478.349z"/>
					
						<linearGradient id="SVGID_00000063610205987854447910000004520947193827958692_" gradientUnits="userSpaceOnUse" x1="-1329.0873" y1="6399.4556" x2="82.9757" y2="4556.4834" gradientTransform="matrix(0.9551 0.2964 -0.2964 0.9551 4.1848 -175.8474)">
						<stop  offset="0" style="stop-color:#E1473D"/>
						<stop  offset="1" style="stop-color:#E9605A"/>
					</linearGradient>
					<path style="fill:url(#SVGID_00000063610205987854447910000004520947193827958692_);" d="M1256.733,2543.364
						c-0.637-0.197-1.244-0.521-1.787-0.976c-46.456-38.93-81.458-100.104-104.03-181.824c-0.76-2.753,0.855-5.602,3.608-6.363
						c2.754-0.758,5.601,0.857,6.362,3.608c22.003,79.66,55.885,139.094,100.705,176.651c2.188,1.835,2.475,5.097,0.642,7.286
						C1260.852,2543.393,1258.664,2543.963,1256.733,2543.364z"/>
					
						<linearGradient id="SVGID_00000139272565112160952940000007148210323260794301_" gradientUnits="userSpaceOnUse" x1="2268.9907" y1="2087.4138" x2="2101.0996" y2="2359.8403" gradientTransform="matrix(0.9551 0.2964 -0.2964 0.9551 4.1848 -175.8474)">
						<stop  offset="0" style="stop-color:#FEBBBA"/>
						<stop  offset="1" style="stop-color:#FF928E"/>
					</linearGradient>
					<path style="fill:url(#SVGID_00000139272565112160952940000007148210323260794301_);" d="M1588.976,2462.745
						c0,0-3.301,5.271-27.099,23.711c-23.799,18.439-47.761,29.081-29.567,3.738c18.194-25.343,9.34-38.42-11.423-11.121
						c-20.763,27.301-35.607,37.846-35.607,37.846c-5.464,2.092-10.779,3.937-15.962,5.563c-0.675,9.34,1.319,21.31,10.061,34.91
						c8.234-2.723,12.887-4.734,12.887-4.734s62.951-11.454,76.433-38.26C1582.183,2487.593,1588.976,2462.745,1588.976,2462.745z"
						/>
				</g>
			</g>
			<g>
				
					<linearGradient id="SVGID_00000014599625924287339990000016858382736558539669_" gradientUnits="userSpaceOnUse" x1="2175.9058" y1="1741.1814" x2="1629.0056" y2="2084.2366">
					<stop  offset="0" style="stop-color:#FEBBBA"/>
					<stop  offset="1" style="stop-color:#FF928E"/>
				</linearGradient>
				<path style="fill:url(#SVGID_00000014599625924287339990000016858382736558539669_);" d="M1587.288,2060.781
					c-7.608-2.611-6.514-13.729,1.463-14.763c36.349-4.714,89.628-18.946,107.075-61.595
					c27.376-66.919-29.331-324.931,231.175-371.097c240.301-42.585,374.139,33.46,371.097,255.509
					C2295.149,2084.069,1949.253,2184.987,1587.288,2060.781z"/>
				
					<linearGradient id="SVGID_00000071524827307002061810000007195242662534488972_" gradientUnits="userSpaceOnUse" x1="1998.5433" y1="1695.2877" x2="1995.0048" y2="2057.9595">
					<stop  offset="0" style="stop-color:#09005D"/>
					<stop  offset="1" style="stop-color:#1A0F91"/>
				</linearGradient>
				<path style="fill:url(#SVGID_00000071524827307002061810000007195242662534488972_);" d="M2003.367,2058.041
					c-0.44,0-0.877-0.172-1.201-0.515c-0.583-0.615-14.269-15.246-12.527-32.849c0.473-4.784,2.042-9.307,4.694-13.537
					c-1.097-0.754-2.136-1.56-3.108-2.421c-5.869-5.202-13.871-16.878-1.486-36.624c6.992-11.148,17.936-20.62,34.442-29.81
					c5.888-3.282,12.459-6.377,19.419-9.65c15.612-7.351,32.422-15.266,44.111-26.722c-19.879-10.954-43.723-16.573-67.903-15.871
					c-6.014,0.172-13.359,0.842-21.423,2.065c7.694,16.68,9.29,36.378,3.441,54.66c-8.271,25.861-29.567,41.754-56.965,42.518
					c-13.638,0.372-33.202-3.172-42.991-14.453c-5.225-6.024-7.121-13.459-5.645-22.109c0.942-5.509,2.878-10.621,5.613-15.35
					c-5.535-3.904-9.934-9.284-12.87-15.874c-0.531-1.194-1.01-2.415-1.434-3.655c-24.938-4.807-46.092-24.336-53.171-51.491
					c-8.018-30.742,1.748-59.639,26.12-77.3c1.114-0.806,2.24-1.58,3.389-2.321c2.483-9.643,6.432-18.561,9.536-24.135
					c18.933-34.024,53.165-58.305,91.575-64.951c44.774-7.733,106.459,3.137,132.174,34.746
					c13.071,16.072,15.991,35.72,8.717,58.486c0.039,0.431,0.071,0.858,0.1,1.292c3.881-2.616,8.455-3.687,13.32-3.146
					c8.316,0.932,17.192,6.6,22.607,14.437c8.597,12.437,9.306,27.032,2,41.1c-3.671,7.066-9.028,13.275-15.327,18.15
					c6.995,3.671,14.509,6.238,21.733,8.332c0.767,0.223,1.269,0.968,1.185,1.764c-0.081,0.796-0.722,1.421-1.521,1.483
					c-13.628,1.036-24.391,8.361-28.79,19.597c-3.072,7.843-2.7,16.337,0.819,24.161c9.685-2.677,27.01-4.532,35.154,1.538
					c3.551,2.645,5.082,6.578,4.431,11.378c-0.884,6.532-4.519,8.999-7.413,9.915c-9.086,2.897-22.999-5.192-27.602-10.148
					c-2.512-2.703-4.6-5.632-6.247-8.701c-0.618,0.22-1.172,0.44-1.654,0.657c-1.525,0.693-3.111,1.525-4.697,2.473
					c3.153,4.826,5.432,10.077,5.885,15.334c0.557,6.477-1.754,12.061-6.866,16.599c-4.548,4.03-9.313,4.797-13.094,2.081
					c-5.118-3.664-7.073-12.896-4.185-19.755c2.56-6.082,7.976-11.333,13.547-15.172c-4.911-6.555-11.388-12.22-16.541-15.411
					c-0.654-0.401-1.308-0.8-1.971-1.188c-12.071,12.135-29.531,20.354-45.736,27.984c-6.904,3.25-13.427,6.322-19.218,9.546
					c-15.997,8.908-26.56,18.021-33.244,28.677c-8.335,13.288-8.034,24.488,0.874,32.383c0.871,0.77,1.806,1.495,2.797,2.175
					c2.803-3.687,6.477-7.138,11.006-10.329c21.52-15.153,38.184-12.945,44.58-4.483c4.596,6.082,2.917,14.291-4.088,19.959
					c-9.818,7.947-34.665,8.313-50.566-0.664c-2.379,3.8-3.791,7.837-4.215,12.084c-1.602,16.085,11.501,30.12,11.631,30.263
					c0.631,0.664,0.602,1.712-0.062,2.34C2004.186,2057.889,2003.774,2058.041,2003.367,2058.041z M1999.061,2010.166
					c14.602,8.063,37.711,7.982,46.571,0.819c5.623-4.551,7.04-10.734,3.528-15.386c-4.561-6.034-18.982-9.63-40.026,5.199
					C2004.998,2003.711,2001.635,2006.841,1999.061,2010.166z M1904.602,1939.142c-2.486,4.373-4.244,9.083-5.108,14.139
					c-1.304,7.623,0.34,14.143,4.881,19.38c9.025,10.397,27.363,13.709,40.395,13.311c25.925-0.722,46.076-15.755,53.9-40.214
					c5.694-17.8,4.014-36.993-3.684-53.107c-1.654,0.275-3.337,0.576-5.04,0.9c-11.093,27.809-39.683,57.331-73.694,50.041
					C1912.027,1942.69,1908.12,1941.188,1904.602,1939.142z M2111.166,1926.968c-5.296,3.658-10.203,8.52-12.398,13.741
					c-2.26,5.36-0.771,13.029,3.059,15.774c3.14,2.24,6.607,0.227,8.963-1.868c4.286-3.803,6.225-8.458,5.765-13.835
					C2116.157,1936.183,2114.089,1931.428,2111.166,1926.968z M1906.34,1936.313c3.208,1.852,6.762,3.218,10.604,4.036
					c31.367,6.727,57.985-20.008,69.104-46.024C1956.232,1900.499,1921.331,1913.667,1906.34,1936.313z M2123.531,1921.06
					c1.47,2.586,3.295,5.079,5.467,7.419c4.163,4.48,16.823,11.553,24.171,9.242c2.923-0.926,4.603-3.282,5.134-7.202
					c0.492-3.632-0.531-6.338-3.13-8.274C2148.408,1917.205,2132.698,1918.665,2123.531,1921.06z M1891.285,1918.451
					c0.223,0.573,0.463,1.139,0.712,1.699c2.651,5.959,6.616,10.838,11.601,14.395c5.37-8.047,13.107-14.939,22.183-20.775
					c-5.386,2.098-10.825,3.58-16.315,4.444C1903.313,1919.179,1897.212,1919.228,1891.285,1918.451z M2093.077,1905.179
					c0.466,0.275,0.926,0.557,1.382,0.842c5.186,3.208,12.236,9.203,17.606,16.418c1.81-1.091,3.583-2.02,5.238-2.768
					c0.46-0.21,0.987-0.424,1.57-0.634c-3.697-8.552-4.085-17.914-0.78-26.356c4.066-10.384,12.968-17.749,24.469-20.568
					c-5.746-1.913-11.524-4.228-16.978-7.232c-6.024,4.079-12.744,6.976-19.584,8.326c-0.01,0.236-0.016,0.469-0.026,0.706
					C2105.443,1886.748,2100.519,1896.854,2093.077,1905.179z M1890.087,1914.926c6.125,0.981,12.466,1.02,18.862,0.013
					c23.387-3.674,45.963-19.137,67.243-46.024c-0.35-0.275-0.699-0.547-1.055-0.813c-14.321-10.821-32.655-15.305-49.018-11.958
					c-13.657,2.777-24.55,10.627-31.5,22.701c-2.185,3.797-3.807,7.873-4.855,12.061c2.454,1.897,5.189,3.37,8.229,4.296
					c0.874,0.269,1.366,1.194,1.101,2.072c-0.269,0.871-1.188,1.369-2.072,1.101c-2.917-0.893-5.577-2.23-8.002-3.93
					C1887.844,1901.327,1888.184,1908.39,1890.087,1914.926z M1862.786,1791.482c-0.123,0.084-0.243,0.172-0.363,0.259
					c-23.222,16.826-32.513,44.409-24.857,73.778c6.591,25.262,25.925,43.603,48.902,48.717c-1.793-7.125-1.9-14.751-0.375-22.115
					c-13.22-11.818-18.03-35.06-16.904-51.09c0.207-2.91,1.091-7.785,2.547-13.861c-3.256-2.285-5.759-5.322-7.487-9.08
					C1860.747,1810.467,1860.928,1800.837,1862.786,1791.482z M1978.739,1871.035c-11.077,13.984-22.53,24.951-34.293,32.859
					c13.939-6.102,29.124-10.417,43.056-13.201c0.874-2.344,1.618-4.668,2.221-6.947c0.016-0.062,0.032-0.126,0.049-0.188
					C1986.644,1878.953,1982.951,1874.732,1978.739,1871.035z M2023.808,1886.67c23.643,0,46.853,5.878,66.284,16.777
					c7.264-7.947,12.068-17.548,12.566-29.671c0.003-0.013,0.003-0.023,0.003-0.023c-1.631,0.188-3.266,0.295-4.894,0.307
					c-0.159,0-0.324,0.003-0.482,0.003c-15.525,0-30.635-5.801-45.179-17.302c-11.893,6.613-25.042,10.685-38.854,10.906
					c-5.869,0.12-11.789-0.586-17.545-1.997c-0.194,5.781-0.971,11.572-2.363,17.286c1.269,1.958,2.444,3.982,3.522,6.057
					c8.617-1.363,16.464-2.101,22.844-2.285C2021.076,1886.689,2022.446,1886.67,2023.808,1886.67z M1992.15,1887.314
					c-0.272,0.88-0.56,1.767-0.867,2.654c0.719-0.133,1.434-0.259,2.146-0.382C1993.018,1888.823,1992.59,1888.062,1992.15,1887.314
					z M1874.769,1828.976c-1.314,5.522-2.101,9.85-2.272,12.288c-1.039,14.741,3.085,35.889,14.492,47.206
					c1.117-3.91,2.703-7.711,4.755-11.275c7.439-12.922,19.098-21.325,33.71-24.3c17.299-3.502,36.614,1.178,51.682,12.56
					c0.366,0.278,0.732,0.56,1.091,0.845c1.334-1.735,2.664-3.519,3.988-5.348c-18.166-8.329-34.465-24.093-46.351-45.577
					c-1.13-2.039-2.441-4.571-3.787-7.497c-12.223,15.81-31.389,27.392-49.795,23.634
					C1879.508,1830.945,1877.003,1830.1,1874.769,1828.976z M1980.782,1868.42c3.726,3.25,7.066,6.895,9.996,10.838
					c0.981-4.797,1.521-9.64,1.641-14.469c-2.389-0.706-4.752-1.534-7.089-2.486
					C1983.821,1864.396,1982.303,1866.438,1980.782,1868.42z M2055.088,1855.038c13.583,10.53,27.547,15.713,42.175,15.713
					c0.159,0,0.317-0.003,0.479-0.003c1.661-0.013,3.328-0.133,4.995-0.353c0.032-7.245-0.735-14.314-1.479-21.18
					c-0.421-3.871-0.848-7.792-1.133-11.77c-2.807-6.749-4.933-15.45-4.623-23.734
					C2085.885,1829.886,2071.83,1844.954,2055.088,1855.038z M2104.167,1845.281c0.123,1.185,0.252,2.379,0.385,3.577
					c0.735,6.778,1.492,13.751,1.499,20.963c5.677-1.207,11.255-3.551,16.353-6.794
					C2115.348,1858.66,2108.987,1852.973,2104.167,1845.281z M1995.756,1862.266c5.723,1.47,11.559,2.204,17.444,2.088
					c12.806-0.204,25.029-3.862,36.154-9.837c-7.95-6.714-15.729-15.149-23.307-25.284c-4.043-5.409-8.908-11.919-12.634-19.05
					c-4.991,13.473-11.718,26.667-18.836,38.242C1995.332,1852.992,1995.73,1857.618,1995.756,1862.266z M1987.304,1859.521
					c1.693,0.667,3.405,1.272,5.127,1.806c-0.048-2.871-0.243-5.733-0.583-8.575
					C1990.341,1855.093,1988.819,1857.349,1987.304,1859.521z M2103.384,1836.629c0.414,0.978,0.838,1.9,1.272,2.764
					c4.92,9.815,12.353,16.606,20.769,21.568c6.403-4.7,11.861-10.857,15.535-17.927c6.714-12.926,6.082-26.311-1.784-37.689
					c-4.82-6.973-12.961-12.21-20.251-13.029c-4.911-0.56-9.206,0.767-12.812,3.923c0.013,6.079-0.79,12.385-1.897,18.691
					C2102.898,1822.434,2102.892,1829.524,2103.384,1836.629z M1934.327,1804.806c1.567,3.561,3.133,6.604,4.438,8.964
					c11.663,21.079,27.654,36.468,45.412,44.434c0.113-0.165,0.227-0.324,0.343-0.489c2.201-3.143,4.409-6.477,6.584-9.967
					c-4.143-23.08-17.71-44.373-38.207-57.561c-2.985-1.923-6.066-3.629-9.216-5.127c-0.848,3.195-2.036,6.445-3.57,9.727
					C1938.516,1798.205,1936.567,1801.575,1934.327,1804.806z M2014.974,1805.79c3.697,8.037,9.245,15.46,13.728,21.455
					c7.795,10.426,15.657,18.946,23.65,25.592c20.231-11.828,36.552-31.26,45.726-51.09c0.078-0.175,0.159-0.35,0.243-0.524
					c0.745-1.638,1.444-3.276,2.091-4.914c0.751-1.903,1.434-3.787,2.046-5.645c-1.262-11.711-6.652-22.063-20.623-28.932
					c-18.156-8.924-44.852-7.546-60.014,5.477C2022.138,1779.379,2019.445,1792.651,2014.974,1805.79z M1944.443,1781.755
					c3.509,1.632,6.934,3.512,10.248,5.642c20.215,13.006,33.934,33.61,38.948,56.182c6.85-11.521,13.207-24.465,17.784-37.54
					c-4.24-9.685-5.846-20.29-0.324-30.719c1.913-3.616,4.415-6.785,7.364-9.517c-0.194-3.943-0.731-7.75-1.657-11.378
					c-3.354-13.136-11.614-23.048-24.556-29.457c-19.454-9.627-44.784-1.735-57.671,17.988c-0.66,1.007-1.272,2.023-1.839,3.046
					C1943.145,1754.871,1947.188,1767.638,1944.443,1781.755z M1875.585,1825.649c2.143,1.178,4.596,2.049,7.358,2.612
					c17.399,3.567,36.138-8.436,47.584-23.909c-3.017-7.19-5.901-16.169-6.934-25.832c-10.595-1.994-21.445-1.89-31.852,0.301
					C1884.597,1794.593,1878.887,1812.639,1875.585,1825.649z M2102.672,1800.229c-4.393,6.817-4.525,16.253-2.826,24.818
					c0.13-3.502,0.469-7.066,1.107-10.692C2101.785,1809.609,2102.439,1804.864,2102.672,1800.229z M1866.706,1788.857
					c-2.366,9.734-3.046,20.011,0.553,27.848c1.279,2.781,3.069,5.102,5.351,6.953c3.218-12.521,8.504-28.978,15.107-43.881
					C1880.35,1781.735,1873.261,1784.762,1866.706,1788.857z M1927.009,1779.24c0.981,8.034,3.269,15.567,5.775,21.876
					c1.651-2.528,3.108-5.121,4.325-7.73c1.114-2.386,2.479-5.762,3.486-9.714C1936.172,1781.79,1931.621,1780.314,1927.009,1779.24
					z M2018.542,1770.416c-1.745,1.945-3.266,4.098-4.516,6.458c-4.24,8.012-3.706,16.321-0.958,24.21
					C2016.35,1790.624,2018.396,1780.178,2018.542,1770.416z M1994.468,1698.547c-10.038,0-19.833,0.796-28.923,2.37
					c-37.43,6.474-70.794,30.137-89.245,63.293c-2.648,4.758-5.95,12.042-8.345,20.05c6.766-3.82,14.02-6.597,21.513-8.329
					c7.384-15.777,16.237-29.188,25.621-33.312c5.166-2.263,10.2-1.809,14.991,1.347c0.537-0.945,1.113-1.887,1.722-2.823
					c13.786-21.105,40.994-29.515,61.918-19.147c13.848,6.859,22.695,17.493,26.298,31.609c0.787,3.082,1.304,6.283,1.583,9.578
					c16.473-12.394,43.269-13.492,61.698-4.425c12.466,6.128,18.658,14.696,21.251,24.478c4.399-18.833,1.068-35.186-9.967-48.753
					C2074.811,1710.175,2032.853,1698.547,1994.468,1698.547z M1926.672,1775.77c4.972,1.088,9.873,2.622,14.641,4.609
					c1.748-9.637,0.78-21.695-10.119-31.338C1927.106,1757.823,1926.047,1767.03,1926.672,1775.77z M1921.46,1744.526
					c-1.651,0-3.324,0.375-5.037,1.13c-8.287,3.638-16.192,15.343-22.954,29.457c9.795-1.768,19.921-1.764,29.839-0.01
					c-0.544-9.209,0.725-18.911,5.221-28.185C1926.199,1745.322,1923.856,1744.526,1921.46,1744.526z"/>
			</g>
		</g>
	</g>
</g>
</svg>
